<svg version="1.1" id="Layer_1" xmlns="http://www.w3.org/2000/svg" xmlns:xlink="http://www.w3.org/1999/xlink" x="0px" y="0px"
	 viewBox="0 0 191.8 58.9" xml:space="preserve">
<style type="text/css">
	.st0{fill:#1C7CB0;}
</style>
<rect id="Rectangle_2062" x="0" y="14" class="st0" width="10.6" height="35.9"/>
<path id="Path_2123" class="st0" d="M79.2,0.2v19.1H59.7V0H48.3v49.9h11.4V28.5h19.5V50h11.4V0.2H79.2z"/>
<path id="Path_2124" class="st0" d="M103.8,33.1c0,4.8,2.4,8.1,8,8.1c4,0,6.7-2.4,7.3-4.6l9.5-0.1c-1.2,9.3-7.8,13.4-17.2,13.4
	c-11.5,0-18.6-7.9-18.6-19.2c0-10.9,7.5-19.2,18.6-19.2c12.4,0,18.5,10.4,17.7,21.6L103.8,33.1z M118.2,26.3c-0.6-4.3-2.8-6-7.2-5.9
	c-5.2,0.1-6.4,3.1-6.9,5.9L118.2,26.3z"/>
<path id="Path_2125" class="st0" d="M166.3,33.3c0,4.8,2.4,8.1,8,8.1c4,0,6.7-2.4,7.3-4.6l9.5-0.1C190,46,183.4,50,174.1,50
	c-11.5,0-18.6-7.9-18.6-19.2c0-10.9,7.5-19.2,18.6-19.2c12.4,0,18.5,10.4,17.7,21.6L166.3,33.3z M180.8,26.4c-0.6-4.3-2.8-6-7.2-5.9
	c-5.2,0.1-6.4,3.1-6.9,5.9L180.8,26.4z"/>
<path id="Path_2126" class="st0" d="M131.4,13.8h9.5v6.8h0.1c2-4.6,6.5-7.7,11.6-7.7c0.7,0,1.5,0.1,2.2,0.4v9.3
	c-1.2-0.2-2.4-0.4-3.6-0.4c-7.4,0-9.8,5.2-9.8,11.7v16.2h-10L131.4,13.8z"/>
<path id="Path_2127" class="st0" d="M23.6,49.9H12.9V26.9c0-2,0.3-3.9,1-5.8c0.6-1.8,1.7-3.4,3-4.8c1.2-1.3,2.7-2.2,4.3-2.9
	c2.4-0.8,4.9-1.2,7.5-1.2c1.8,0,3.7,0.1,5.5,0.4c1.7,0.2,3.4,0.6,5,1.4c1.4,0.8,2.6,1.8,3.7,3c1,1.2,1.8,2.5,2.3,4
	c0.6,1.9,0.9,3.9,1,5.8v23.1H35.4V26.4c0.1-1.6-0.5-3.2-1.6-4.4c-2.5-2.1-6.2-2.1-8.7,0c-1.1,1.2-1.7,2.8-1.6,4.4L23.6,49.9z"/>
<path id="Path_2128" class="st0" d="M15.6,58.9l5-6.7h17.6l4.6,6.7H15.6z"/>
<circle id="Ellipse_30" class="st0" cx="32.7" cy="38.5" r="1.4"/>
<rect id="Rectangle_2063" y="4.4" class="st0" width="10.6" height="7.4"/>
</svg>
